<svg xmlns="http://www.w3.org/2000/svg" width="300" height="400" viewBox="0 0 300 400"><rect width="100%" height="100%" fill="#DDDDDD"/><path fill="#999999" d="M77.18 187.535h4.15v25.31h-2.41q-.56 0-.94-.18-.38-.19-.73-.63l-13.21-16.87q.11 1.16.11 2.14v15.54H60v-25.31h2.47q.29 0 .51.03t.39.11q.16.07.32.22t.35.4l13.27 16.94q-.06-.62-.09-1.21-.04-.6-.04-1.1zm17.05 7.07q1.99 0 3.63.65t2.8 1.84 1.79 2.9q.63 1.72.63 3.84 0 2.13-.63 3.85-.63 1.71-1.79 2.92t-2.8 1.85q-1.64.65-3.63.65-2.01 0-3.66-.65-1.64-.64-2.81-1.85-1.16-1.21-1.8-2.92-.64-1.72-.64-3.85 0-2.12.64-3.84.64-1.71 1.8-2.9 1.17-1.19 2.81-1.84 1.65-.65 3.66-.65m0 15.18q2.24 0 3.31-1.51 1.08-1.5 1.08-4.41 0-2.9-1.08-4.43-1.07-1.52-3.31-1.52-2.28 0-3.37 1.53t-1.09 4.42 1.09 4.4q1.09 1.52 3.37 1.52m26.06-9.52h3.51q1.3 0 2.26-.33.96-.32 1.6-.92.64-.61.96-1.47.31-.87.31-1.94 0-1.01-.31-1.84-.32-.82-.95-1.4-.63-.57-1.59-.88t-2.28-.31h-3.51zm-4.71-12.73h8.22q2.54 0 4.4.6 1.85.59 3.06 1.66t1.79 2.56q.59 1.48.59 3.25 0 1.84-.61 3.37-.62 1.53-1.84 2.63-1.23 1.11-3.07 1.72-1.85.61-4.32.61h-3.51v8.91h-4.71zm24.8 8.44.26 2.03q.84-1.61 1.99-2.53 1.16-.92 2.73-.92 1.25 0 2 .54l-.28 3.24q-.09.32-.25.45-.17.13-.45.13-.26 0-.78-.09t-1.01-.09q-.71 0-1.27.21t-1.01.61q-.45.39-.79.95t-.64 1.28v11.06h-4.32v-17.96h2.54q.66 0 .93.24.26.24.35.85m12.65 5.83h8.15q0-.84-.23-1.59-.24-.74-.71-1.3t-1.2-.88q-.73-.33-1.69-.33-1.87 0-2.95 1.07-1.07 1.07-1.37 3.03m11.02 2.6h-11.11q.11 1.39.49 2.39.39 1.01 1.02 1.67.63.65 1.49.98.87.32 1.92.32t1.81-.25q.76-.24 1.33-.54t1-.54q.43-.25.83-.25.54 0 .8.41l1.25 1.57q-.72.84-1.61 1.41-.9.57-1.87.91t-1.97.48q-1.01.14-1.96.14-1.87 0-3.48-.62t-2.8-1.84q-1.19-1.21-1.87-3.01-.68-1.79-.68-4.15 0-1.84.59-3.46.6-1.62 1.71-2.82t2.71-1.9 3.61-.7q1.7 0 3.14.55 1.43.54 2.46 1.58 1.04 1.04 1.62 2.56.59 1.51.59 3.45 0 .98-.21 1.32t-.81.34m17.03-9.52h3.41l-7.12 17.96h-3.92l-7.12-17.96h3.57q.49 0 .81.23.33.23.43.58l3.47 9.59q.28.84.49 1.64.21.81.36 1.61.18-.8.39-1.61.21-.8.51-1.64l3.53-9.59q.12-.35.44-.58.31-.23.75-.23m5.85 0h4.34v17.96h-4.34zm4.93-5.23q0 .56-.23 1.05-.22.49-.6.86t-.88.59q-.51.21-1.09.21-.56 0-1.06-.21-.5-.22-.86-.59-.37-.37-.59-.86t-.22-1.05q0-.58.22-1.08.22-.51.59-.88.36-.37.86-.58.5-.22 1.06-.22.58 0 1.09.22.5.21.88.58t.6.88q.23.5.23 1.08m7.23 12.15h8.15q0-.84-.23-1.59-.24-.74-.71-1.3t-1.2-.88q-.73-.33-1.69-.33-1.87 0-2.95 1.07-1.07 1.07-1.37 3.03m11.02 2.6H199q.11 1.39.49 2.39.39 1.01 1.02 1.67.63.65 1.49.98.87.32 1.92.32t1.81-.25q.76-.24 1.33-.54t1-.54q.43-.25.83-.25.54 0 .8.41l1.25 1.57q-.72.84-1.61 1.41-.9.57-1.87.91t-1.97.48q-1.01.14-1.96.14-1.87 0-3.48-.62t-2.8-1.84q-1.19-1.21-1.87-3.01-.68-1.79-.68-4.15 0-1.84.59-3.46.6-1.62 1.71-2.82t2.71-1.9 3.61-.7q1.7 0 3.14.55 1.43.54 2.46 1.58 1.04 1.04 1.62 2.56.59 1.51.59 3.45 0 .98-.21 1.32t-.81.34m26.6-9.52H240l-5.7 17.96h-3.47q-.59 0-.82-.77l-3.22-10.38q-.16-.52-.29-1.04t-.22-1.04q-.1.52-.23 1.06-.13.53-.29 1.06l-3.27 10.34q-.21.77-.93.77h-3.33l-5.68-17.96h3.44q.48 0 .81.23t.44.58l2.57 9.59q.19.79.34 1.54t.25 1.5q.2-.75.41-1.5.22-.75.47-1.54l2.97-9.63q.11-.35.42-.57.3-.23.74-.23h1.91q.45 0 .77.23.33.22.43.57l2.89 9.63q.23.79.43 1.55t.39 1.51q.23-1.49.65-3.06l2.64-9.59q.13-.35.44-.58.32-.23.75-.23"/></svg>